<svg version="1.1" xmlns="http://www.w3.org/2000/svg" xmlns:xlink="http://www.w3.org/1999/xlink">
  <symbol version="1.1" id="checkoff" xmlns="http://www.w3.org/2000/svg" xmlns:xlink="http://www.w3.org/1999/xlink" x="0px" y="0px"
     width="23px" height="23px" viewBox="0 0 23 23" enable-background="new 0 0 23 23" xml:space="preserve">
    <path d="M20,2c0.542,0,1,0.458,1,1v17c0,0.542-0.458,1-1,1H3c-0.542,0-1-0.458-1-1V3c0-0.542,0.458-1,1-1H20 M20,0H3
      C1.35,0,0,1.35,0,3v17c0,1.65,1.35,3,3,3h17c1.65,0,3-1.35,3-3V3C23,1.35,21.65,0,20,0L20,0z"/>
  </symbol>
  <symbol version="1.1" id="checkon" xmlns="http://www.w3.org/2000/svg" xmlns:xlink="http://www.w3.org/1999/xlink" x="0px" y="0px" width="27px" height="23px" viewBox="0 0 27 23" enable-background="new 0 0 27 23" xml:space="preserve">
    <g>
      <polygon points="7.285,7.486 4.456,10.315 12.239,18.098 26.171,4.166 23.343,1.337 12.239,12.439"/>
      <path d="M21,20c0,0.542-0.458,1-1,1H3c-0.542,0-1-0.458-1-1V3c0-0.542,0.458-1,1-1h16.908l1.585-1.585C21.051,0.158,20.545,0,20,0
        H3C1.35,0,0,1.35,0,3v17c0,1.65,1.35,3,3,3h17c1.65,0,3-1.35,3-3v-9.829l-2,2V20z"/>
    </g>
  </symbol>

  <view id="check-on" viewBox="0 0 27 23" />
  <view id="check-off" viewBox="0 24 27 23" />

  <use xlink:href="#checkon" style="fill: #fff" width="27" height="23" x="0" y="0"></use>
  <use xlink:href="#checkoff" style="fill: #fff;" width="27" height="23" x="0" y="24"></use>
</svg>
