<svg><symbol id="basket-empty" xmlns="http://www.w3.org/2000/svg" viewBox="0 0 21 20"><path d="M5.657 2.031L5.422 0H0v2h3.64l1.5 13h13.988l1.699-12.969H5.657zM17.372 13H6.922L5.888 4.031h12.66L17.372 13z"/><circle cx="6.984" cy="18" r="2"/><circle cx="15.984" cy="18" r="2"/></symbol><symbol id="basket-full" xmlns="http://www.w3.org/2000/svg" viewBox="0 0 21 20"><path fill="#E84D37" d="M5.888 4.031L6.922 13h10.45l1.176-8.969z"/><circle cx="6.984" cy="18" r="2"/><circle cx="15.984" cy="18" r="2"/><path d="M5.657 2.031L5.422 0H0v2h3.64l1.5 13h13.988l1.699-12.969H5.657zM17.372 13H6.922L5.888 4.031h12.66L17.372 13z"/></symbol><symbol id="loupe" xmlns="http://www.w3.org/2000/svg" xmlns:xlink="http://www.w3.org/1999/xlink" viewBox="0 0 17 17"><path d="M16.958 15.527L11.75 10.32A6.455 6.455 0 0013 6.5 6.5 6.5 0 106.5 13a6.465 6.465 0 003.839-1.263l5.205 5.204 1.414-1.414zM6.5 11C4.019 11 2 8.981 2 6.5S4.019 2 6.5 2 11 4.019 11 6.5 8.981 11 6.5 11z"/></symbol><symbol id="login" xmlns="http://www.w3.org/2000/svg" xmlns:xlink="http://www.w3.org/1999/xlink" viewBox="0 0 21 19"><path d="M6 14.875L12.917 9.5 6 4.125v2.917H-.042v4.917H6z"/><path d="M18 0H5C3.9 0 3 .9 3 2v2h2V2h13v15H5v-2H3v2c0 1.1.9 2 2 2h13c1.1 0 2-.9 2-2V2c0-1.1-.9-2-2-2z"/></symbol><symbol id="ice-cream" xmlns="http://www.w3.org/2000/svg" xmlns:xlink="http://www.w3.org/1999/xlink" viewBox="0 0 49 49" xml:space="preserve"><path d="M24.5 0C10.969 0 0 10.969 0 24.5S10.969 49 24.5 49 49 38.031 49 24.5 38.031 0 24.5 0zm0 47C12.093 47 2 36.906 2 24.5 2 12.093 12.093 2 24.5 2 36.906 2 47 12.093 47 24.5 47 36.906 36.906 47 24.5 47z"/><path d="M24.5 7.625c-4.355 0-7.94 3.278-8.436 7.5H16v16.917h17V15.125h-.063c-.497-4.222-4.082-7.5-8.437-7.5zM31 30.042H18v-9.257c.275.337.705.631 1.542.631 1.292 0 2.125-.713 2.125-1.625v-.875a.854.854 0 111.708 0c0 .009-.005.017-.005.025 0 .007.005.01.005.017v3.292s-.031 1.833 2.125 1.833c2.109 0 2.125-1.75 2.125-1.75v-2.25h.001l-.001-.005a1.344 1.344 0 012.688 0c0 .031.021.088.021.088s.034.609.667.894v8.982zm-8 10.083a1.5 1.5 0 103 0V33h-3v7.125z"/></symbol><symbol id="leaf" xmlns="http://www.w3.org/2000/svg" xmlns:xlink="http://www.w3.org/1999/xlink" viewBox="0 0 49 49" xml:space="preserve"><path d="M24.5 0C10.969 0 0 10.969 0 24.5S10.969 49 24.5 49 49 38.031 49 24.5 38.031 0 24.5 0zm0 47C12.093 47 2 36.906 2 24.5 2 12.093 12.093 2 24.5 2 36.906 2 47 12.093 47 24.5 47 36.906 36.906 47 24.5 47z"/><path d="M34.807 26.756c-.45-9.493-9.197-18.693-9.586-19.097-.015-.015-.033-.023-.048-.037a.942.942 0 00-.118-.09.945.945 0 00-.13-.077c-.018-.009-.032-.022-.051-.03-.027-.011-.056-.011-.083-.02a.898.898 0 00-.297-.044c-.045 0-.089.002-.134.008a.957.957 0 00-.158.038c-.025.008-.052.008-.076.018-.018.007-.031.021-.049.029a.896.896 0 00-.133.079.95.95 0 00-.118.091c-.015.013-.033.021-.046.036-.389.404-9.14 9.608-9.587 19.105-.008.067-.017.133-.011.202-.013.363-.017.727-.003 1.091.369 10.256 9.978 12.82 10.075 12.845a.995.995 0 00.494 0c.097-.024 9.706-2.589 10.074-12.845.013-.363.009-.727-.003-1.089.006-.073-.004-.142-.012-.213zM16.783 23.25c2.219 2.058 5.368 3.521 6.717 4.091v4.552c-2.448-1.196-6.219-3.341-7.302-5.228a17.06 17.06 0 01.585-3.415zm2.024-5.096c1.513 1.688 3.602 2.646 4.693 3.059v3.94c-1.654-.76-4.424-2.216-6.016-4.043a29.164 29.164 0 011.323-2.956zm12.711 2.954c-1.59 1.824-4.362 3.283-6.018 4.044v-3.939c1.092-.413 3.183-1.372 4.695-3.062.489.949.935 1.94 1.323 2.957zM25.5 19.047v-8.008a45.239 45.239 0 013.651 5.229c-.953 1.374-2.536 2.276-3.651 2.779zm0 12.846v-4.552c1.35-.569 4.499-2.034 6.719-4.092.305 1.128.515 2.273.584 3.417-1.083 1.883-4.855 4.029-7.303 5.227zm-2-12.843c-1.113-.5-2.694-1.399-3.649-2.779a45.379 45.379 0 013.649-5.229v8.008zm-7.117 10.775c2.328 1.983 5.69 3.629 7.117 4.281v4.403c-2.092-.904-6.162-3.331-7.117-8.684zm9.117 8.696v-4.415c1.428-.653 4.792-2.3 7.121-4.284-.95 5.411-5.02 7.813-7.121 8.699z"/></symbol><symbol id="cow" xmlns="http://www.w3.org/2000/svg" xmlns:xlink="http://www.w3.org/1999/xlink" viewBox="0 0 49 49" xml:space="preserve"><path d="M24.5 0C10.969 0 0 10.969 0 24.5S10.969 49 24.5 49 49 38.031 49 24.5 38.031 0 24.5 0zm0 47C12.093 47 2 36.906 2 24.5 2 12.093 12.093 2 24.5 2 36.906 2 47 12.093 47 24.5 47 36.906 36.906 47 24.5 47z"/><path d="M34.811 19.342c.86-1.711 1.88-4.987.433-9.482a1 1 0 00-1.825-.182c-1.271 2.268-4.038 5.927-6.047 6.094-.03.002-.054.019-.083.024A16.242 16.242 0 0024.5 15.5c-.103 0-1.311.009-2.801.292-.025-.004-.045-.019-.071-.021-2.004-.167-4.773-3.827-6.048-6.095a1 1 0 00-1.824.183c-1.448 4.494-.427 7.771.433 9.482-1.744.22-3.954.777-4.757 2.188-.388.682-.38 1.464.024 2.201.514.939 1.399 1.245 2.334 1.245.816 0 1.668-.233 2.349-.482-.004.54.026 1.08.129 1.612.288 1.496 1.131 3.636 1.748 5.197.188.479.396 1.004.509 1.324-.235.614-.672 1.812-.766 2.484-.112.801.114 2.147 1.121 3.306 1.443 1.659 4.006 2.5 7.619 2.5 3.612 0 6.176-.841 7.619-2.5 1.007-1.158 1.233-2.505 1.121-3.306-.094-.673-.53-1.87-.767-2.484.114-.319.32-.843.509-1.32.617-1.563 1.462-3.704 1.75-5.201a8.483 8.483 0 00.135-1.61c.679.248 1.528.48 2.342.48.936 0 1.82-.306 2.334-1.245.404-.737.412-1.519.024-2.201-.801-1.41-3.011-1.967-4.755-2.187zm-.953-6.634c.428 3.06-.477 5.157-1.031 6.112a9.905 9.905 0 00-.798-.872c-.544-.526-1.199-.934-1.891-1.258 1.483-1.051 2.801-2.673 3.72-3.982zm-18.716.002c.916 1.304 2.229 2.919 3.706 3.97-.701.329-1.359.744-1.892 1.283-.276.279-.533.57-.771.872-.549-.943-1.468-3.054-1.043-6.125zM11.21 22.77c-.089-.163-.063-.21-.04-.25.223-.391 1.387-1.006 3.609-1.233-.116.29-.217.582-.302.878-1.265.673-2.998 1.091-3.267.605zm21.558 2.959c-.252 1.313-1.058 3.354-1.646 4.844-.398 1.01-.609 1.552-.683 1.877l-.066.302.114.287c.283.71.711 1.908.772 2.351.001.009.096.858-.649 1.716-.72.826-2.363 1.812-6.11 1.812-3.747 0-5.391-.986-6.11-1.812-.746-.857-.651-1.707-.65-1.716.062-.441.489-1.641.772-2.352l.114-.286-.066-.302c-.072-.326-.284-.869-.683-1.881-.587-1.489-1.392-3.528-1.645-4.841-.422-2.198.379-4.575 2.145-6.358 1.513-1.528 4.933-1.868 6.123-1.871 1.166 0 4.539.339 6.139 1.886 2.081 2.014 2.465 4.597 2.129 6.344zm5.021-2.959c-.263.479-1.974.07-3.238-.592a9.437 9.437 0 00-.297-.888c2.198.23 3.354.84 3.575 1.229.024.041.05.087-.04.251z"/></symbol><symbol id="thermometer" xmlns="http://www.w3.org/2000/svg" xmlns:xlink="http://www.w3.org/1999/xlink" viewBox="0 0 49 49" xml:space="preserve"><path d="M24.5 0C10.969 0 0 10.969 0 24.5S10.969 49 24.5 49 49 38.031 49 24.5 38.031 0 24.5 0zm0 47C12.093 47 2 36.906 2 24.5 2 12.093 12.093 2 24.5 2 36.906 2 47 12.093 47 24.5 47 36.906 36.906 47 24.5 47z"/><path d="M28.938 13.125c0-2.774-2.257-5.031-5.031-5.031s-5.031 2.257-5.031 5.031v14.64a7.042 7.042 0 00-2 4.923c0 3.929 3.196 7.125 7.125 7.125s7.125-3.196 7.125-7.125a7.127 7.127 0 00-2.188-5.126V13.125zm.187 19.563a5.126 5.126 0 01-10.25 0c0-1.647.792-3.098 2-4.035V13.125a3.031 3.031 0 116.062 0v15.372a5.114 5.114 0 012.188 4.191z"/><path d="M25 29.559V13.188a1 1 0 10-2 0v16.371a2.99 2.99 0 00-2 2.816 3 3 0 106 0 2.99 2.99 0 00-2-2.816zM31 12h6v2h-6zm0 4h6v2h-6zm0 4h6v2h-6zm0 4h6v2h-6z"/></symbol><symbol id="twitter" xmlns="http://www.w3.org/2000/svg" xmlns:xlink="http://www.w3.org/1999/xlink" viewBox="0 0 32 32" xml:space="preserve"><path d="M16 0C7.164 0 0 7.164 0 16c0 8.837 7.164 16 16 16 8.837 0 16-7.163 16-16 0-8.836-7.163-16-16-16zm7.944 12.809c-.251 6.516-3.463 10.832-10.992 10.702h-.486c-.447 0-4.543-.443-5.344-1.823 2.479.19 4.247-.406 5.12-1.136-1.048-.289-2.923-.461-3.251-2.848.384.104.618.221 1.299.113-1.307-.824-2.758-1.519-2.679-3.643.311.317 1.164.518 1.46.457-.768-.233-2.149-3.244-.974-4.781 1.984 1.79 4.075 3.482 7.804 3.643.227-2.214 1.24-3.699 3.168-4.325 1.84-.479 3.255.26 3.901 1.138.737-.224 1.453-.466 2.193-.685-.004.833-.569 1.463-.935 1.709.747.165 1.423-.475 1.423-.475-.184.963-1.094 1.725-1.707 1.954z"/></symbol><symbol id="instagram" xmlns="http://www.w3.org/2000/svg" xmlns:xlink="http://www.w3.org/1999/xlink" viewBox="0 0 32 32" xml:space="preserve"><path d="M20.916 16a4.938 4.938 0 01-9.877 0c0-.394.051-.773.138-1.14h-.897v6.838h11.396V14.86h-.897c.086.367.137.746.137 1.14z"/><path d="M15.978 18.659c1.466 0 2.659-1.193 2.659-2.659s-1.193-2.659-2.659-2.659c-1.466 0-2.659 1.193-2.659 2.659s1.192 2.659 2.659 2.659zm2.659-8.357h3.039v3.039h-3.039z"/><path d="M16 0C7.164 0 0 7.164 0 16c0 8.837 7.164 16 16 16 8.837 0 16-7.163 16-16 0-8.836-7.163-16-16-16zm7.955 21.698a2.285 2.285 0 01-2.279 2.279H10.279A2.285 2.285 0 018 21.698V10.302a2.286 2.286 0 012.279-2.279h11.396a2.286 2.286 0 012.279 2.279v11.396z"/></symbol><symbol id="facebook" xmlns="http://www.w3.org/2000/svg" xmlns:xlink="http://www.w3.org/1999/xlink" viewBox="0 0 32 32" xml:space="preserve"><path d="M16 0C7.164 0 0 7.163 0 16s7.164 16 16 16c8.837 0 16-7.164 16-16S24.837 0 16 0zm4.062 9.455h-3.021v3.444h3.021v3.445h-3.021v8.61H14.02v-8.61H11v-3.445h3.021V9.455c0-1.902 1.353-3.445 3.021-3.445h3.021v3.445z"/></symbol><symbol id="vk" xmlns="http://www.w3.org/2000/svg" xmlns:xlink="http://www.w3.org/1999/xlink" viewBox="0 0 32 32" xml:space="preserve"><path d="M16.637 14.495c.402-.019.719-.082.951-.188.326-.145.54-.33.641-.559.101-.229.15-.496.15-.797 0-.232-.058-.465-.174-.697-.116-.232-.322-.405-.617-.517-.264-.1-.592-.155-.984-.165a76.242 76.242 0 00-1.652-.014h-.339v2.965h.565c.571 0 1.057-.009 1.459-.028zm1.481 2.589c-.282-.081-.672-.125-1.166-.132a127.97 127.97 0 00-1.55-.009h-.79v3.493h.264c1.014 0 1.74-.003 2.18-.009a3.2 3.2 0 001.212-.245c.377-.157.633-.364.774-.625s.214-.562.214-.9c0-.446-.088-.788-.261-1.03-.17-.241-.464-.423-.877-.543z"/><path d="M16 0C7.164 0 0 7.164 0 16c0 8.837 7.164 16 16 16 8.837 0 16-7.163 16-16 0-8.836-7.163-16-16-16zm6.602 20.531a3.73 3.73 0 01-1.124 1.327c-.552.415-1.161.71-1.823.886s-1.501.264-2.519.264h-6.121V8.987h5.443c1.13 0 1.957.038 2.48.113a5.126 5.126 0 011.561.5c.533.27.929.632 1.189 1.087.26.455.392.975.392 1.558 0 .678-.179 1.278-.536 1.795-.358.518-.863.92-1.517 1.208v.075c.917.182 1.642.559 2.179 1.13.537.571.807 1.325.807 2.261 0 .678-.138 1.283-.411 1.817z"/></symbol></svg>